<?xml version="1.0" encoding="UTF-8" standalone="no"?>
<!-- Generator: Adobe Illustrator 19.0.0, SVG Export Plug-In . SVG Version: 6.00 Build 0)  -->

<svg
   xmlns:dc="http://purl.org/dc/elements/1.1/"
   xmlns:cc="http://creativecommons.org/ns#"
   xmlns:rdf="http://www.w3.org/1999/02/22-rdf-syntax-ns#"
   xmlns:svg="http://www.w3.org/2000/svg"
   xmlns="http://www.w3.org/2000/svg"
   xmlns:sodipodi="http://sodipodi.sourceforge.net/DTD/sodipodi-0.dtd"
   xmlns:inkscape="http://www.inkscape.org/namespaces/inkscape"
   version="1.1"
   id="Layer_1"
   x="0px"
   y="0px"
   viewBox="0 0 200 200"
   xml:space="preserve"
   inkscape:version="0.91 r13725"
   sodipodi:docname="launcher_icon.svg"
   inkscape:export-filename="C:\Users\adity\Desktop\png_icon.png"
   inkscape:export-xdpi="349.60999"
   inkscape:export-ydpi="349.60999"
   width="200"
   height="200"><metadata
     id="metadata59"><rdf:RDF><cc:Work
         rdf:about=""><dc:format>image/svg+xml</dc:format><dc:type
           rdf:resource="http://purl.org/dc/dcmitype/StillImage" /><dc:title></dc:title></cc:Work></rdf:RDF></metadata><defs
     id="defs57" /><sodipodi:namedview
     pagecolor="#ffffff"
     bordercolor="#666666"
     borderopacity="1"
     objecttolerance="10"
     gridtolerance="10"
     guidetolerance="10"
     inkscape:pageopacity="0"
     inkscape:pageshadow="2"
     inkscape:window-width="1858"
     inkscape:window-height="1057"
     id="namedview55"
     showgrid="false"
     inkscape:zoom="2.8294102"
     inkscape:cx="86.871307"
     inkscape:cy="62.13121"
     inkscape:window-x="-8"
     inkscape:window-y="-8"
     inkscape:window-maximized="1"
     inkscape:current-layer="Layer_1" /><g
     id="g4423"
     transform="matrix(0.75869211,0,0,0.75869211,107.52387,-43.08842)"><ellipse
       ry="17.100271"
       rx="16.077456"
       cy="151.73796"
       cx="-59.742325"
       id="path4289"
       style="opacity:1;fill:#ffdd55;fill-opacity:1" /><rect
       rx="30.514639"
       ry="62.137062"
       y="175.54958"
       x="-70.29512"
       height="67.01033"
       width="126.28111"
       id="rect4187"
       style="opacity:1;fill:#2196f3;fill-opacity:1" /><rect
       x="-32.966164"
       y="-195.9303"
       transform="matrix(-0.99998399,-0.00565841,0.00155404,-0.99999879,0,0)"
       style="fill:#ffffff"
       width="86.207298"
       height="10.407703"
       id="rect9" /><polygon
       transform="matrix(0.27991356,-0.24400367,0.22940911,0.29772112,-140.19479,182.52237)"
       style="fill:#7d8880"
       points="225.104,201.572 219.069,163.983 231.824,163.983 225.617,201.572 "
       id="polygon19" /><polygon
       transform="matrix(0.27991356,-0.24400367,0.22940911,0.29772112,-140.19479,182.52237)"
       style="fill:#f06668"
       points="206.41,138.943 209.045,161.902 218.871,167.477 237.523,167.934 251.207,159.975 242.257,145.513 237.171,90.741 237.433,83.254 249.669,75.793 251.162,71.98 197.348,72.384 199.514,76.119 213.269,88.672 "
       id="polygon21" /><path
       style="fill:#e84849"
       d="m -32.967274,171.0654 c -0.585343,2.01678 -1.702629,3.96872 -3.262355,5.65981 l -0.535688,0.55456 c -0.0617,0.0632 -0.11795,0.1287 -0.184007,0.18628 l -0.516189,0.47784 c -1.054876,0.91009 -2.183172,1.64778 -3.343183,2.17123 -4.339082,1.97428 -9.094698,1.28316 -11.786351,-2.10798 -1.507432,-1.90408 -0.865502,-3.13207 -0.04031,-5.92581 l -7.799233,-14.63426 c -2.156002,0.86262 -5.07615,-0.028 -6.964427,-0.99437 3.88897,0.0346 6.980974,-1.84499 8.936985,-3.51672 0.465231,0.46045 1.781222,1.7754 1.955739,1.9861 1.242338,-1.0755 2.119436,-2.16407 2.672349,-2.99444 l -0.004,-0.009 -1.40474,-2.56147 c 1.198354,-1.73741 2.014397,-3.56411 2.31964,-5.18593 0.473302,1.82757 0.803759,4.24948 0.09433,5.87325 0,0 8.510018,7.80187 12.044305,11.09752 2.831791,-0.50358 4.810792,-1.39854 6.371288,0.5653 2.008872,2.52507 2.420975,6.00211 1.445857,9.35855 z m -20.519791,-18.76775 c -0.573627,0.84842 -1.457879,1.93926 -2.706224,3.01849 l 13.450678,17.6357 c 0.575772,-0.41631 1.131655,-0.86753 1.625311,-1.37401 1.046544,-1.08 1.792467,-2.30906 2.210035,-3.56892 l -14.5798,-15.71126 z m 19.764286,17.38526 -4.767543,-1.38795 c -0.451916,1.29726 -1.220077,2.54968 -2.289085,3.65276 -0.516529,0.53388 -1.10349,1.00124 -1.71049,1.44078 l 1.277982,5.13757 0.01009,0.038 c 1.005077,-0.57453 1.988862,-1.27931 2.926605,-2.11915 2.194783,-1.97095 3.762354,-4.34476 4.587864,-6.69781 l -0.03542,-0.0642 z m -23.963822,-18.14355 c -1.826111,1.84517 -5.636359,4.85554 -10.662261,4.37962 -0.468986,-0.2133 -0.880762,-0.50236 -1.197415,-0.90419 -0.343467,-0.43421 -0.560397,-0.95682 -0.672563,-1.5384 -0.491664,-2.67607 1.421314,-6.65843 4.928839,-9.80904 3.512162,-3.14521 7.527871,-4.47279 9.919573,-3.50527 0.52587,0.21 0.971612,0.52917 1.317957,0.96286 0.345303,0.43659 0.566077,0.95933 0.673764,1.54482 0.03019,0.0872 0.06351,0.19598 0.09225,0.29037 -0.03684,2.48328 -1.801227,5.95587 -4.400148,8.57923 z"
       id="path23"
       inkscape:connector-curvature="0" /><rect
       x="-32.995941"
       y="-215.09195"
       transform="matrix(-0.99998399,-0.00565841,0.00155404,-0.99999879,0,0)"
       style="fill:#ffffff"
       width="86.207298"
       height="10.407703"
       id="rect9-5" /><rect
       x="-8.2223663"
       y="-233.7178"
       transform="matrix(-0.99996855,-0.00793038,0.0011088,-0.99999939,0,0)"
       style="fill:#ffffff"
       width="61.509686"
       height="10.4077"
       id="rect9-5-0" /></g></svg>